# Reviewed evidence fixture copied byte-for-byte from the retained spike fixture
# smf-hand-authored-type1.hex. Comments and whitespace are not decoded.
4d 54 68 64 00 00 00 06 00 01 00 02 01 e0
4d 54 72 6b 00 00 00 2d
00 ff 03 09 43 6f 6e 64 75 63 74 6f 72
00 ff 51 03 07 a1 20
00 ff 58 04 04 02 18 08
81 70 ff 59 02 00 00
87 40 ff 06 01 41
00 ff 2f 00
4d 54 72 6b 00 00 00 43
00 c0 18
00 90 28 5a
81 70 e0 00 50
81 70 a0 28 40
00 b0 40 7f
00 d0 46
00 f0 03 7d 01 02
00 ff 01 01 54
00 ff 7f 02 01 02
81 70 80 28 00
00 2f 00
00 90 2f 50
83 60 2f 00
00 ff 05 02 6c 61
00 ff 2f 00
