<svg xmlns="http://www.w3.org/2000/svg" width="640" height="360" viewBox="0 0 640 360">
  <rect width="640" height="360" fill="#263447" />
  <path d="M70 88 L570 88 L570 272 L70 272 Z" fill="#a86e3e" stroke="#362619" stroke-width="5" />
  <line x1="70.0" y1="88.0" x2="70.0" y2="272.0" stroke="#d5dde7" stroke-width="6" /><line x1="111.7" y1="88.0" x2="111.7" y2="272.0" stroke="#d5dde7" stroke-width="2" /><line x1="153.3" y1="88.0" x2="153.3" y2="272.0" stroke="#d5dde7" stroke-width="2" /><line x1="195.0" y1="88.0" x2="195.0" y2="272.0" stroke="#d5dde7" stroke-width="2" /><line x1="236.7" y1="88.0" x2="236.7" y2="272.0" stroke="#d5dde7" stroke-width="2" /><line x1="278.3" y1="88.0" x2="278.3" y2="272.0" stroke="#d5dde7" stroke-width="2" /><line x1="320.0" y1="88.0" x2="320.0" y2="272.0" stroke="#d5dde7" stroke-width="2" /><line x1="361.7" y1="88.0" x2="361.7" y2="272.0" stroke="#d5dde7" stroke-width="2" /><line x1="403.3" y1="88.0" x2="403.3" y2="272.0" stroke="#d5dde7" stroke-width="2" /><line x1="445.0" y1="88.0" x2="445.0" y2="272.0" stroke="#d5dde7" stroke-width="2" /><line x1="486.7" y1="88.0" x2="486.7" y2="272.0" stroke="#d5dde7" stroke-width="2" /><line x1="528.3" y1="88.0" x2="528.3" y2="272.0" stroke="#d5dde7" stroke-width="2" /><line x1="570.0" y1="88.0" x2="570.0" y2="272.0" stroke="#d5dde7" stroke-width="2" />
  <line x1="70" y1="100.0" x2="570" y2="100.0" stroke="#f5e9c9" stroke-width="1" /><line x1="70" y1="132.0" x2="570" y2="132.0" stroke="#f5e9c9" stroke-width="1.35" /><line x1="70" y1="164.0" x2="570" y2="164.0" stroke="#f5e9c9" stroke-width="1.7" /><line x1="70" y1="196.0" x2="570" y2="196.0" stroke="#f5e9c9" stroke-width="2.05" /><line x1="70" y1="228.0" x2="570" y2="228.0" stroke="#f5e9c9" stroke-width="2.4" /><line x1="70" y1="260.0" x2="570" y2="260.0" stroke="#f5e9c9" stroke-width="2.75" />
  <circle cx="299.16666666666663" cy="180" r="8" fill="#eee8d5" />
  <circle cx="552" cy="162" r="6" fill="#eee8d5" />
  <circle cx="552" cy="198" r="6" fill="#eee8d5" />
  <ellipse cx="111.7" cy="180" rx="38" ry="72" fill="#d99772" opacity="0.5" transform="rotate(-12 111.7 180)" />
  <text x="18" y="28" fill="#ffffff" font-family="monospace" font-size="14">dev-open-e2-soft · 0.60s</text>
</svg>
